<svg width="25" height="25" viewBox="0 0 25 25" fill="none" xmlns="http://www.w3.org/2000/svg">
<path fill-rule="evenodd" clip-rule="evenodd" d="M0 2.49891C0 1.1171 1.11861 0 2.5 0H22.5C23.8814 0 25 1.1171 25 2.49891V17.4891C25 18.8709 23.8814 19.988 22.5 19.988H16.2792L13.1932 24.6139C13.0387 24.8456 12.7785 24.9848 12.5 24.9848C12.2215 24.9848 11.9613 24.8456 11.8068 24.6139L8.72084 19.988H2.5C1.11861 19.988 0 18.8709 0 17.4891V2.49891ZM6.66667 11.6667H8.33333V10H6.66667V11.6667ZM11.6667 11.6667H13.3333V10H11.6667V11.6667ZM18.3333 11.6667H16.6667V10H18.3333V11.6667Z" fill="#937AEA"/>
</svg>
