<svg width="25" height="24" viewBox="0 0 25 24" fill="none" xmlns="http://www.w3.org/2000/svg">
<path d="M13.5 11.15H7.5" stroke="#707D9F" stroke-width="1.5" stroke-linecap="round" stroke-linejoin="round"/>
<path d="M2.5 11.15V6.53003C2.5 4.49003 4.15 2.84003 6.19 2.84003H11.81C13.85 2.84003 15.5 4.11002 15.5 6.15002" stroke="#707D9F" stroke-width="1.5" stroke-linecap="round" stroke-linejoin="round"/>
<path d="M17.98 12.2C17.48 12.68 17.24 13.42 17.44 14.18C17.69 15.11 18.61 15.7 19.57 15.7H20.5V17.15C20.5 19.36 18.71 21.15 16.5 21.15H6.5C4.29 21.15 2.5 19.36 2.5 17.15V10.15C2.5 7.94002 4.29 6.15002 6.5 6.15002H16.5C18.7 6.15002 20.5 7.95002 20.5 10.15V11.6H19.42C18.86 11.6 18.35 11.82 17.98 12.2Z" stroke="#707D9F" stroke-width="1.5" stroke-linecap="round" stroke-linejoin="round"/>
<path d="M22.5 12.62V14.68C22.5 15.24 22.04 15.7 21.47 15.7H19.54C18.46 15.7 17.47 14.91 17.38 13.83C17.32 13.2 17.56 12.61 17.98 12.2C18.35 11.82 18.86 11.6 19.42 11.6H21.47C22.04 11.6 22.5 12.06 22.5 12.62Z" stroke="#707D9F" stroke-width="1.5" stroke-linecap="round" stroke-linejoin="round"/>
</svg>
