<svg width="27" height="27" viewBox="0 0 27 27" fill="none" xmlns="http://www.w3.org/2000/svg">
<path d="M13.5 1L14.1508 0.240743C13.7763 -0.0802478 13.2237 -0.0802478 12.8492 0.240743L13.5 1ZM1 11.7143L0.349209 10.955L0 11.2544V11.7143H1ZM9.92857 26V27C10.4809 27 10.9286 26.5523 10.9286 26H9.92857ZM17.0714 26H16.0714C16.0714 26.5523 16.5191 27 17.0714 27V26ZM26 11.7143H27V11.2544L26.6508 10.955L26 11.7143ZM2.78571 27H9.92857V25H2.78571V27ZM26.6508 10.955L14.1508 0.240743L12.8492 1.75926L25.3492 12.4735L26.6508 10.955ZM12.8492 0.240743L0.349209 10.955L1.65079 12.4735L14.1508 1.75926L12.8492 0.240743ZM10.9286 26V20.6429H8.92857V26H10.9286ZM16.0714 20.6429V26H18.0714V20.6429H16.0714ZM17.0714 27H24.2143V25H17.0714V27ZM27 24.2143V11.7143H25V24.2143H27ZM0 11.7143V24.2143H2V11.7143H0ZM13.5 18.0714C14.9202 18.0714 16.0714 19.2227 16.0714 20.6429H18.0714C18.0714 18.1181 16.0247 16.0714 13.5 16.0714V18.0714ZM13.5 16.0714C10.9753 16.0714 8.92857 18.1181 8.92857 20.6429H10.9286C10.9286 19.2227 12.0798 18.0714 13.5 18.0714V16.0714ZM24.2143 27C25.7528 27 27 25.7528 27 24.2143H25C25 24.6482 24.6482 25 24.2143 25V27ZM2.78571 25C2.35178 25 2 24.6482 2 24.2143H0C0 25.7528 1.24721 27 2.78571 27V25Z" fill="#A0ACBE"/>
</svg>
