<svg width="27" height="27" viewBox="0 0 27 27" fill="none" xmlns="http://www.w3.org/2000/svg">
<path d="M6.35714 23.3214V22.4283C6.35714 19.4696 8.75562 17.0714 11.7143 17.0714H15.2857C18.2444 17.0714 20.6429 19.4696 20.6429 22.4283V23.3214M13.5 6.35714C11.5276 6.35714 9.92857 7.95613 9.92857 9.92857C9.92857 11.901 11.5276 13.5 13.5 13.5C15.4724 13.5 17.0714 11.901 17.0714 9.92857C17.0714 7.95613 15.4724 6.35714 13.5 6.35714ZM13.5 26C6.59644 26 1 20.4036 1 13.5C1 6.59644 6.59644 1 13.5 1C20.4036 1 26 6.59644 26 13.5C26 20.4036 20.4036 26 13.5 26Z" stroke="#A0ACBE" stroke-width="2" stroke-linecap="square"/>
</svg>
