<svg width="18" height="18" viewBox="0 0 18 18" fill="none" xmlns="http://www.w3.org/2000/svg">
    <path d="M7.1775 14.115C7.035 14.115 6.8925 14.0625 6.78 13.95L2.2275 9.3975C2.01 9.18 2.01 8.82 2.2275 8.6025L6.78 4.05C6.9975 3.8325 7.3575 3.8325 7.575 4.05C7.7925 4.2675 7.7925 4.6275 7.575 4.845L3.42 9L7.575 13.155C7.7925 13.3725 7.7925 13.7325 7.575 13.95C7.47 14.0625 7.32 14.115 7.1775 14.115Z" fill="#243757"/>
    <path d="M15.375 9.5625H2.7525C2.445 9.5625 2.19 9.3075 2.19 9C2.19 8.6925 2.445 8.4375 2.7525 8.4375H15.375C15.6825 8.4375 15.9375 8.6925 15.9375 9C15.9375 9.3075 15.6825 9.5625 15.375 9.5625Z" fill="#243757"/>
    </svg>
    