<svg width="34" height="34" viewBox="0 0 34 34" fill="none" xmlns="http://www.w3.org/2000/svg">
    <rect x="0.5" y="0.5" width="33" height="33" rx="9.5" fill="#E8E8F0" stroke="#E8E8F0"/>
    <path d="M15.1775 22.115C15.035 22.115 14.8925 22.0625 14.78 21.95L10.2275 17.3975C10.01 17.18 10.01 16.82 10.2275 16.6025L14.78 12.05C14.9975 11.8325 15.3575 11.8325 15.575 12.05C15.7925 12.2675 15.7925 12.6275 15.575 12.845L11.42 17L15.575 21.155C15.7925 21.3725 15.7925 21.7325 15.575 21.95C15.47 22.0625 15.32 22.115 15.1775 22.115Z" fill="#243757"/>
    <path d="M23.375 17.5625H10.7525C10.445 17.5625 10.19 17.3075 10.19 17C10.19 16.6925 10.445 16.4375 10.7525 16.4375H23.375C23.6825 16.4375 23.9375 16.6925 23.9375 17C23.9375 17.3075 23.6825 17.5625 23.375 17.5625Z" fill="#243757"/>
    </svg>
    