<svg width="24" height="24" viewBox="0 0 24 24" fill="none" xmlns="http://www.w3.org/2000/svg">
    <path d="M21.0525 16.995L19.77 15.15C19.5949 14.8992 19.5007 14.6009 19.5 14.295V9C19.5 7.01088 18.7098 5.10322 17.3033 3.6967C15.8968 2.29018 13.9891 1.5 12 1.5C10.0109 1.5 8.10322 2.29018 6.6967 3.6967C5.29017 5.10322 4.5 7.01088 4.5 9V14.295C4.49927 14.6009 4.40506 14.8992 4.23 15.15L2.9475 16.995C2.75331 17.2102 2.62561 17.477 2.57985 17.7632C2.53409 18.0494 2.57222 18.3427 2.68964 18.6077C2.80706 18.8727 2.99873 19.098 3.24148 19.2563C3.48423 19.4147 3.76766 19.4993 4.0575 19.5H8.325C8.325 19.5 8.325 19.5 8.325 19.5L15.675 19.5C15.675 19.5 15.675 19.5001 15.675 19.5L19.9425 19.5C20.2323 19.4993 20.5158 19.4147 20.7585 19.2563C21.0013 19.098 21.1929 18.8727 21.3104 18.6077C21.4278 18.3427 21.4659 18.0494 21.4201 17.7632C21.3744 17.477 21.2467 17.2102 21.0525 16.995Z" fill="#039BE5"/>
    <path d="M15.3186 20.5H8.68142C8.91408 20.9422 9.23443 21.3366 9.62681 21.6573C10.2966 22.2047 11.135 22.5038 12 22.5038C12.865 22.5038 13.7034 22.2047 14.3732 21.6573C14.7656 21.3366 15.0859 20.9422 15.3186 20.5Z" fill="#039BE5"/>
    </svg>
    