<svg width="20" height="20" viewBox="0 0 20 20" fill="none" xmlns="http://www.w3.org/2000/svg">
    <path d="M6.39996 11.7L6.09996 11.3L5.29996 11.9L5.59996 12.3L6.39996 11.7ZM14.4 12.3L14.7 11.9L13.9 11.3L13.6 11.7L14.4 12.3ZM9.99996 18.8333C5.12144 18.8333 1.16663 14.8785 1.16663 9.99999H0.166626C0.166626 15.4308 4.56916 19.8333 9.99996 19.8333V18.8333ZM18.8333 9.99999C18.8333 14.8785 14.8785 18.8333 9.99996 18.8333V19.8333C15.4308 19.8333 19.8333 15.4308 19.8333 9.99999H18.8333ZM9.99996 1.16666C14.8785 1.16666 18.8333 5.12147 18.8333 9.99999H19.8333C19.8333 4.56919 15.4308 0.166656 9.99996 0.166656V1.16666ZM9.99996 0.166656C4.56916 0.166656 0.166626 4.56919 0.166626 9.99999H1.16663C1.16663 5.12147 5.12144 1.16666 9.99996 1.16666V0.166656ZM5.33329 7.83332H6.66663V6.83332H5.33329V7.83332ZM13.3333 7.83332H14.6666V6.83332H13.3333V7.83332ZM13.6 11.7C11.8 14.1 8.19996 14.1 6.39996 11.7L5.59996 12.3C7.79996 15.2333 12.2 15.2333 14.4 12.3L13.6 11.7Z" fill="#A0ACBE"/>
    </svg>
    