<svg width="13" height="21" viewBox="0 0 13 21" fill="none" xmlns="http://www.w3.org/2000/svg">
    <path fill-rule="evenodd" clip-rule="evenodd" d="M0.500093 4.25004C0.500093 2.17898 2.51482 0.499988 5.00002 0.499988C7.48532 0.499988 9.49996 2.17898 9.49996 4.25004V15.5001C9.49996 16.8808 8.15681 17.9999 6.49998 17.9999C4.84315 17.9999 3.5 16.8808 3.5 15.5001V5.50006H5.00002V15.5001C5.00002 16.1904 5.67153 16.7501 6.49998 16.7501C7.32843 16.7501 8.00002 16.1904 8.00002 15.5001V4.25004C8.00002 2.8693 6.65686 1.75003 5.00002 1.75003C3.34311 1.75003 1.99996 2.8693 1.99996 4.25004V15.5001C1.99996 17.5712 4.0147 19.2501 6.49998 19.2501C8.98526 19.2501 11 17.5712 11 15.5001V3.00005H12.4999V16.125C12.1302 18.5907 9.55921 20.5001 6.49998 20.5001C3.44091 20.5001 0.869845 18.5907 0.499918 16.125L0.500093 4.25004Z" fill="#A0ACBE"/>
    </svg>
    