<svg width="14" height="21" viewBox="0 0 14 21" fill="none" xmlns="http://www.w3.org/2000/svg">
    <path fill-rule="evenodd" clip-rule="evenodd" d="M6.02284 20.5C5.68387 20.5 5.40908 20.2202 5.40908 19.875C5.40908 19.5299 5.68387 19.2501 6.02284 19.2501H6.63642V17.972C3.60673 17.6935 1.04166 15.3741 0.5 12.3749H1.72734C2.28593 14.8791 4.62235 16.7499 7.25008 16.7499C9.87773 16.7499 12.2141 14.8791 12.7727 12.3749H14.0001C13.4583 15.3741 10.8933 17.6935 7.86366 17.972V19.2501H8.47732C8.8162 19.2501 9.091 19.5299 9.091 19.875C9.091 20.2202 8.8162 20.5 8.47732 20.5H6.02284ZM7.25008 15.5001C4.8777 15.5001 2.95458 13.5413 2.95458 11.1251V4.87517C2.95458 2.45889 4.8777 0.499939 7.25008 0.499939C9.62229 0.499939 11.5455 2.45889 11.5455 4.87517V11.1251C11.5455 13.5413 9.62229 15.5001 7.25008 15.5001ZM10.3182 4.87517C10.3182 3.14926 8.94454 1.74997 7.25008 1.74997C5.55553 1.74997 4.18184 3.14926 4.18184 4.87517V11.1251C4.18184 12.851 5.55553 14.25 7.25008 14.25C8.94454 14.25 10.3182 12.851 10.3182 11.1251V4.87517Z" fill="#A0ACBE"/>
    </svg>
    