<svg width="22" height="22" viewBox="0 0 22 22" fill="none" xmlns="http://www.w3.org/2000/svg">
    <path fill-rule="evenodd" clip-rule="evenodd" d="M10.0833 3.66667C6.5395 3.66667 3.66666 6.53951 3.66666 10.0833C3.66666 13.6272 6.5395 16.5 10.0833 16.5C13.6272 16.5 16.5 13.6272 16.5 10.0833C16.5 6.53951 13.6272 3.66667 10.0833 3.66667ZM1.83333 10.0833C1.83333 5.52698 5.52698 1.83333 10.0833 1.83333C14.6397 1.83333 18.3333 5.52698 18.3333 10.0833C18.3333 14.6397 14.6397 18.3333 10.0833 18.3333C5.52698 18.3333 1.83333 14.6397 1.83333 10.0833Z" fill="#A1ADBF"/>
    <path fill-rule="evenodd" clip-rule="evenodd" d="M14.6143 14.6143C14.9723 14.2563 15.5527 14.2563 15.9107 14.6143L19.8982 18.6018C20.2562 18.9598 20.2562 19.5402 19.8982 19.8982C19.5402 20.2562 18.9598 20.2562 18.6018 19.8982L14.6143 15.9107C14.2563 15.5527 14.2563 14.9723 14.6143 14.6143Z" fill="#A1ADBF"/>
    </svg>
    